<?xml version="1.0" encoding="iso-8859-1"?>
<!-- Generator: Adobe Illustrator 19.0.0, SVG Export Plug-In . SVG Version: 6.00 Build 0)  -->
<svg xmlns="http://www.w3.org/2000/svg" xmlns:xlink="http://www.w3.org/1999/xlink" version="1.1" id="Layer_1" x="0px" y="0px" viewBox="0 0 512.005 512.005" style="enable-background:new 0 0 512.005 512.005;" xml:space="preserve" width="512px" height="512px">
<g>
	<g>
		<path d="M292.062,235.097c-7.438-4.906-16.469-7.828-25.531-10.359v-73.391c0.125-0.016,0.219-0.031,0.312-0.047    c10.969-1.969,19.875-1.766,20.531-1.75c5.875,0,11.094-4.75,11.094-10.625c0-5.719-4.531-10.406-10.219-10.625    c-0.812-0.031-9.812-0.344-21.719,1.484V75.065c0-5.875-4.75-10.641-10.633-10.641c-5.875,0-10.641,4.766-10.641,10.641v60    c-9.094,3.281-18.188,8.141-25.625,15.297c-11.234,10.812-16.922,24.875-16.891,41.812c0.031,16.547,6.375,29.359,18.844,38.094    c7.094,4.969,15.281,8.078,23.672,10.609v59.688c-5.969,2.453-11.734,5.297-16.719,9.094    c-10.219,7.781-15.406,18.297-15.406,31.266c0,21.907,11.047,40.017,31.938,52.329c0.062,0.047,0.125,0.078,0.188,0.109v43.578    c0,5.875,4.766,10.641,10.641,10.641c5.883,0,10.633-4.766,10.633-10.641v-34.328c4.406,1.344,7.562,2,8.5,2.172    c0,0.016,1.5,0.234,2.156,0.234c5.875,0,10.656-4.781,10.656-10.656c0-5.219-3.781-9.547-8.75-10.453v-0.016    c-0.062-0.016-5.5-1.047-12.562-3.812V315.3c9.281-3.406,18.688-7.141,26.469-13.25c10.781-8.484,16.25-20.062,16.25-34.406    C309.249,253.565,303.468,242.612,292.062,235.097z M224.038,192.128c-0.031-11.031,3.344-19.656,10.312-26.375    c3.188-3.094,6.953-5.562,10.906-7.562v60.265C231.569,213.502,224.069,207.127,224.038,192.128z M245.257,366.832    c-7.203-7.188-10.828-15.86-10.828-25.907c0-7.938,3.297-12.594,10.828-16.812V366.832z M266.53,292.456v-45.484    c15.094,4.75,21.438,9.391,21.438,20.672C287.968,280.565,281.343,286.3,266.53,292.456z" fill="#D80027"/>
	</g>
</g>
<g>
	<g>
		<path d="M501.343,299.347l-75.063-43.344l75.062-43.328c10.188-5.875,13.688-18.891,7.812-29.078L445.28,72.987    c-3.938-6.828-11.094-10.641-18.438-10.641c-3.625,0-7.281,0.922-10.625,2.844l-75.062,43.344V21.861    c0-11.75-9.531-21.297-21.281-21.297H192.148c-11.766,0-21.297,9.547-21.297,21.297v86.673L95.788,65.191    c-3.344-1.922-7-2.844-10.625-2.844c-7.344,0-14.5,3.812-18.438,10.641L2.865,183.597c-5.891,10.188-2.406,23.203,7.781,29.078    l75.064,43.328l-75.063,43.344c-10.172,5.875-13.672,18.891-7.781,29.078l63.86,110.61c3.938,6.828,11.094,10.641,18.438,10.641    c3.625,0,7.281-0.922,10.625-2.859l75.062-43.328v86.672c0,11.75,9.532,21.281,21.297,21.281h127.727    c11.75,0,21.281-9.531,21.281-21.281v-86.672l75.062,43.328c3.344,1.938,7,2.859,10.625,2.859c7.344,0,14.5-3.812,18.438-10.641    l63.875-110.61C515.03,318.237,511.53,305.222,501.343,299.347z M426.843,428.379l-75.062-43.328l-31.906-18.438v36.875v86.672    H192.148v-86.672v-36.875l-31.938,18.438l-75.062,43.328l-63.86-110.595l75.063-43.344l31.937-18.437L96.35,237.565    l-75.063-43.328l63.86-110.609l75.062,43.344l31.938,18.422v-36.859V21.861h127.727v86.673v36.859l31.906-18.422l75.062-43.344    l63.875,110.609l-75.062,43.328l-31.937,18.439l31.938,18.438l75.062,43.344L426.843,428.379z" fill="#D80027"/>
	</g>
</g>
<g>
</g>
<g>
</g>
<g>
</g>
<g>
</g>
<g>
</g>
<g>
</g>
<g>
</g>
<g>
</g>
<g>
</g>
<g>
</g>
<g>
</g>
<g>
</g>
<g>
</g>
<g>
</g>
<g>
</g>
</svg>
