<?xml version="1.0" encoding="iso-8859-1"?>
<!-- Generator: Adobe Illustrator 16.0.0, SVG Export Plug-In . SVG Version: 6.00 Build 0)  -->
<!DOCTYPE svg PUBLIC "-//W3C//DTD SVG 1.1//EN" "http://www.w3.org/Graphics/SVG/1.1/DTD/svg11.dtd">
<svg xmlns="http://www.w3.org/2000/svg" xmlns:xlink="http://www.w3.org/1999/xlink" version="1.1" id="Capa_1" x="0px" y="0px" width="512px" height="512px" viewBox="0 0 25 25" style="enable-background:new 0 0 25 25;" xml:space="preserve">
<g>
	<path d="M20,0H5C2.25,0,0,2.25,0,5v15c0,2.75,2.25,5,5,5h15c2.75,0,5-2.25,5-5V5C25,2.25,22.75,0,20,0z M15.953,1.25h1.012   c0.139,0,0.25,0.112,0.25,0.25s-0.111,0.25-0.25,0.25h-1.012c-0.139,0-0.25-0.112-0.25-0.25S15.814,1.25,15.953,1.25z M12.918,1.25   h1.012c0.139,0,0.25,0.112,0.25,0.25s-0.111,0.25-0.25,0.25h-1.012c-0.138,0-0.25-0.112-0.25-0.25S12.78,1.25,12.918,1.25z    M9.883,1.25h1.012c0.138,0,0.25,0.112,0.25,0.25s-0.112,0.25-0.25,0.25H9.883c-0.138,0-0.25-0.112-0.25-0.25   S9.745,1.25,9.883,1.25z M6.847,1.25h1.012c0.138,0,0.25,0.112,0.25,0.25s-0.112,0.25-0.25,0.25H6.847   c-0.138,0-0.25-0.112-0.25-0.25S6.709,1.25,6.847,1.25z M1.25,5.749c0-0.138,0.112-0.25,0.25-0.25s0.25,0.112,0.25,0.25v1.012   c0,0.138-0.112,0.25-0.25,0.25s-0.25-0.112-0.25-0.25V5.749z M1.25,8.784c0-0.138,0.112-0.25,0.25-0.25s0.25,0.112,0.25,0.25v1.012   c0,0.138-0.112,0.25-0.25,0.25s-0.25-0.112-0.25-0.25V8.784z M1.25,11.819c0-0.138,0.112-0.25,0.25-0.25s0.25,0.112,0.25,0.25   v1.012c0,0.138-0.112,0.25-0.25,0.25s-0.25-0.112-0.25-0.25V11.819z M1.25,14.854c0-0.138,0.112-0.25,0.25-0.25   s0.25,0.112,0.25,0.25v1.013c0,0.138-0.112,0.25-0.25,0.25s-0.25-0.112-0.25-0.25V14.854z M1.25,18.9v-1.01   c0-0.139,0.112-0.25,0.25-0.25s0.25,0.111,0.25,0.25v1.012c0,0.138-0.112,0.25-0.25,0.25S1.25,19.039,1.25,18.9z M2.155,22.051   c-0.041,0.025-0.087,0.037-0.132,0.037c-0.083,0-0.165-0.042-0.213-0.118c-0.19-0.308-0.336-0.641-0.431-0.989   c-0.036-0.133,0.042-0.271,0.176-0.308c0.133-0.037,0.271,0.043,0.307,0.177c0.082,0.301,0.208,0.59,0.374,0.856   C2.309,21.823,2.272,21.979,2.155,22.051z M2.419,3.026C2.228,3.275,2.073,3.55,1.961,3.843c-0.038,0.1-0.133,0.16-0.233,0.16   c-0.03,0-0.061-0.005-0.09-0.017c-0.129-0.05-0.193-0.194-0.144-0.323c0.13-0.338,0.308-0.654,0.528-0.942   C2.105,2.61,2.262,2.59,2.373,2.675C2.482,2.76,2.503,2.917,2.419,3.026z M4.476,23.711c-0.012,0-0.024-0.001-0.037-0.003   c-0.356-0.054-0.704-0.159-1.033-0.313c-0.125-0.06-0.179-0.207-0.12-0.332c0.06-0.127,0.21-0.178,0.333-0.121   c0.285,0.136,0.586,0.227,0.895,0.272c0.137,0.021,0.23,0.147,0.21,0.284C4.704,23.622,4.598,23.711,4.476,23.711z M4.836,1.755   C4.522,1.771,4.213,1.832,3.917,1.936C3.89,1.946,3.861,1.951,3.834,1.951c-0.103,0-0.199-0.064-0.235-0.167   C3.553,1.654,3.62,1.512,3.751,1.466c0.341-0.121,0.697-0.191,1.06-0.21c0.144-0.009,0.256,0.1,0.263,0.237   C5.081,1.63,4.974,1.747,4.836,1.755z M7.509,23.75H6.497c-0.138,0-0.25-0.111-0.25-0.25s0.112-0.25,0.25-0.25h1.012   c0.138,0,0.25,0.111,0.25,0.25S7.646,23.75,7.509,23.75z M10.544,23.75H9.532c-0.138,0-0.25-0.111-0.25-0.25s0.112-0.25,0.25-0.25   h1.012c0.138,0,0.25,0.111,0.25,0.25S10.682,23.75,10.544,23.75z M13.58,23.75h-1.013c-0.138,0-0.25-0.111-0.25-0.25   s0.112-0.25,0.25-0.25h1.013c0.138,0,0.25,0.111,0.25,0.25S13.718,23.75,13.58,23.75z M15.258,19.396H9.741v-4.139H5.603V9.74   h4.138V5.602h5.517V9.74h4.139v5.518h-4.139V19.396z M16.615,23.75h-1.012c-0.139,0-0.25-0.111-0.25-0.25s0.111-0.25,0.25-0.25   h1.012c0.138,0,0.25,0.111,0.25,0.25S16.753,23.75,16.615,23.75z M19.65,23.75h-1.012c-0.139,0-0.25-0.111-0.25-0.25   s0.111-0.25,0.25-0.25h1.012c0.138,0,0.25,0.111,0.25,0.25S19.788,23.75,19.65,23.75z M20.041,1.751   c-0.006,0-0.053-0.001-0.059-0.002L18.988,1.75c-0.139,0-0.25-0.112-0.25-0.25s0.111-0.25,0.25-0.25H20   c0.139,0,0.271,0.112,0.271,0.251C20.271,1.639,20.18,1.751,20.041,1.751z M22.602,22.698c-0.263,0.253-0.558,0.465-0.877,0.631   c-0.037,0.021-0.076,0.028-0.115,0.028c-0.09,0-0.178-0.049-0.221-0.135c-0.063-0.123-0.017-0.273,0.105-0.338   c0.277-0.145,0.533-0.328,0.76-0.547c0.102-0.096,0.26-0.093,0.354,0.006C22.703,22.443,22.7,22.604,22.602,22.698z M22.854,2.96   c-0.047,0.039-0.104,0.058-0.16,0.058c-0.07,0-0.143-0.03-0.191-0.09c-0.201-0.242-0.436-0.453-0.695-0.628   c-0.115-0.077-0.146-0.232-0.068-0.348c0.078-0.114,0.232-0.145,0.348-0.068c0.301,0.202,0.57,0.445,0.803,0.724   C22.975,2.714,22.959,2.872,22.854,2.96z M23.75,20c-0.001,0.285-0.033,0.566-0.096,0.839c-0.026,0.116-0.129,0.194-0.243,0.194   c-0.019,0-0.037-0.002-0.056-0.006c-0.135-0.031-0.219-0.166-0.188-0.301c0.056-0.234,0.082-0.479,0.083-0.729v-0.223   c0-0.137,0.111-0.25,0.25-0.25s0.25,0.113,0.25,0.25V20z M23.75,17.754c0,0.139-0.111,0.25-0.25,0.25s-0.25-0.111-0.25-0.25v-1.012   c0-0.139,0.111-0.25,0.25-0.25s0.25,0.111,0.25,0.25V17.754z M23.75,14.719c0,0.139-0.111,0.25-0.25,0.25s-0.25-0.111-0.25-0.25   v-1.012c0-0.139,0.111-0.25,0.25-0.25s0.25,0.111,0.25,0.25V14.719z M23.75,11.684c0,0.138-0.111,0.25-0.25,0.25   s-0.25-0.112-0.25-0.25v-1.012c0-0.138,0.111-0.25,0.25-0.25s0.25,0.112,0.25,0.25V11.684z M23.75,8.648   c0,0.138-0.111,0.25-0.25,0.25s-0.25-0.112-0.25-0.25V7.636c0-0.138,0.111-0.25,0.25-0.25s0.25,0.112,0.25,0.25V8.648z    M23.75,5.612c0,0.138-0.111,0.25-0.25,0.25s-0.25-0.112-0.25-0.25V5c0-0.125-0.007-0.249-0.021-0.371   c-0.016-0.137,0.084-0.261,0.222-0.275c0.135-0.015,0.261,0.084,0.274,0.221c0.017,0.14,0.024,0.281,0.024,0.426L23.75,5.612   L23.75,5.612z" fill="#D80027"/>
</g>
<g>
</g>
<g>
</g>
<g>
</g>
<g>
</g>
<g>
</g>
<g>
</g>
<g>
</g>
<g>
</g>
<g>
</g>
<g>
</g>
<g>
</g>
<g>
</g>
<g>
</g>
<g>
</g>
<g>
</g>
</svg>
