<?xml version="1.0" encoding="iso-8859-1"?>
<!-- Generator: Adobe Illustrator 19.0.0, SVG Export Plug-In . SVG Version: 6.00 Build 0)  -->
<svg version="1.1" id="Layer_1" xmlns="http://www.w3.org/2000/svg" xmlns:xlink="http://www.w3.org/1999/xlink" x="0px" y="0px"
	 viewBox="0 0 214.82 214.82" style="enable-background:new 0 0 214.82 214.82;" xml:space="preserve">
<g>
	<g>
		<g>
			<path d="M212.8,130.932l-40.743-23.522L212.8,83.887c0.927-0.537,1.606-1.419,1.882-2.454c0.276-1.036,0.134-2.139-0.402-3.066
				l-28.283-48.986c-1.12-1.933-3.594-2.596-5.52-1.48l-40.743,23.522V4.379c0-2.231-1.807-4.04-4.04-4.04H79.127
				c-2.233,0-4.04,1.809-4.04,4.04v47.045L34.343,27.902c-1.929-1.117-4.404-0.454-5.52,1.48L0.54,78.367
				c-0.537,0.927-0.679,2.03-0.402,3.066s0.955,1.918,1.882,2.454l40.743,23.522L2.02,130.932c-0.927,0.537-1.606,1.419-1.882,2.454
				c-0.276,1.036-0.134,2.139,0.402,3.066l28.283,48.986c1.117,1.933,3.591,2.59,5.52,1.48l40.743-23.522v47.045
				c0,2.231,1.807,4.04,4.04,4.04h56.566c2.233,0,4.04-1.809,4.04-4.04v-47.045l40.743,23.522c1.926,1.111,4.4,0.454,5.52-1.48
				l28.283-48.986c0.537-0.927,0.679-2.03,0.402-3.066C214.403,132.35,213.727,131.469,212.8,130.932z M181.017,177.898l-43.304-25
				c-1.247-0.722-2.794-0.722-4.04,0c-1.251,0.722-2.02,2.056-2.02,3.5V206.4H83.167v-50.002c0-1.444-0.769-2.778-2.02-3.5
				c-1.247-0.722-2.794-0.722-4.04,0l-43.304,25L9.56,135.911l43.304-25.002c1.251-0.722,2.02-2.056,2.02-3.5
				c0-1.444-0.769-2.778-2.02-3.5L9.56,78.908l24.242-41.986l43.304,25c1.247,0.722,2.794,0.722,4.04,0
				c1.251-0.722,2.02-2.056,2.02-3.5V8.42h48.485v50.002c0,1.444,0.769,2.778,2.02,3.5c1.247,0.722,2.794,0.722,4.04,0l43.304-25
				l24.242,41.986l-43.304,25.002c-1.251,0.722-2.02,2.056-2.02,3.5c0,1.444,0.769,2.778,2.02,3.5l43.304,25.002L181.017,177.898z"
				/>
			<path d="M178.085,72.541c1.945-1.099,2.628-3.565,1.527-5.506c-1.097-1.943-3.567-2.624-5.504-1.525l-64.93,36.757L44.25,65.51
				c-1.937-1.099-4.407-0.416-5.504,1.525c-1.101,1.941-0.418,4.407,1.527,5.506l60.706,34.367l-62.478,35.369
				c-1.945,1.099-2.628,3.565-1.527,5.506c0.742,1.314,2.111,2.05,3.52,2.05c0.675,0,1.357-0.168,1.985-0.525l66.699-37.759
				l66.697,37.759c0.627,0.357,1.309,0.525,1.984,0.525c1.408,0,2.778-0.738,3.52-2.05c1.101-1.941,0.418-4.407-1.527-5.506
				l-62.476-35.369L178.085,72.541z"/>
		</g>
	</g>
</g>
<g>
</g>
<g>
</g>
<g>
</g>
<g>
</g>
<g>
</g>
<g>
</g>
<g>
</g>
<g>
</g>
<g>
</g>
<g>
</g>
<g>
</g>
<g>
</g>
<g>
</g>
<g>
</g>
<g>
</g>
</svg>
