<?xml version="1.0" encoding="iso-8859-1"?>
<!-- Generator: Adobe Illustrator 19.0.0, SVG Export Plug-In . SVG Version: 6.00 Build 0)  -->
<svg version="1.1" id="Layer_1" xmlns="http://www.w3.org/2000/svg" xmlns:xlink="http://www.w3.org/1999/xlink" x="0px" y="0px"
	 viewBox="0 0 512 512" style="enable-background:new 0 0 512 512;" xml:space="preserve">
<g>
	<g>
		<g>
			<path d="M458.668,0H53.332c-5.89,0-10.669,4.776-10.669,10.669v490.662c0,5.892,4.779,10.669,10.669,10.669h405.335
				c5.89,0,10.669-4.776,10.669-10.669V10.669C469.337,4.776,464.558,0,458.668,0z M447.999,490.662H64.001V21.338h383.998V490.662z
				"/>
			<path d="M95.997,469.336h320.001c5.892,0,10.669-4.776,10.669-10.669v-93.45c0-3.439-1.659-6.668-4.453-8.671
				c-19.523-13.99-44.336-26.259-85.138-42.044l-8.752-13.624c21.169-14.009,28.993-24.261,37.109-73.586
				c0.481-2.923,1.211-6.72,2.055-11.115c4.676-24.372,11.742-61.202,4.728-84.684c-8.098-27.109-23.474-49.737-44.465-65.438
				c-20.456-15.301-45.268-23.39-71.75-23.392c-26.482,0-51.294,8.089-71.752,23.392c-20.99,15.701-36.366,38.329-44.463,65.438
				c-7.016,23.476,0.048,60.298,4.722,84.662c0.844,4.403,1.574,8.205,2.055,11.136c8.152,49.508,15.931,59.61,37.043,73.55
				c-1.742,2.79-4.397,6.97-8.688,13.659c-40.8,15.785-65.611,28.052-85.136,42.042c-2.796,2.005-4.455,5.232-4.455,8.673v93.45
				C85.328,464.56,90.107,469.336,95.997,469.336z M106.666,370.802c17.908-12.013,41.442-23.167,79.168-37.636
				c2.121-0.813,3.928-2.284,5.155-4.195c9.67-15.059,12.284-19.272,13.946-22.153c0.14-0.24,0.296-0.479,0.446-0.719
				c7.31-11.511-1.446-17.558-2.457-18.2l-2.705-1.725c-20.649-13.134-24.949-15.868-32.603-62.346
				c-0.527-3.207-1.281-7.136-2.155-11.69c-3.756-19.591-10.752-56.061-5.232-74.535c13.561-45.399,50.258-73.6,95.77-73.6
				c45.515,0.004,82.213,28.206,95.771,73.6c5.522,18.48-1.478,54.959-5.238,74.555c-0.871,4.545-1.625,8.469-2.153,11.671
				c-7.647,46.474-12.507,49.564-32.959,62.57c-1.156,0.735-2.355,1.498-3.594,2.294c-2.383,1.528-4.062,3.94-4.665,6.705
				c-0.602,2.767-0.081,5.66,1.449,8.041l16.401,25.53c1.227,1.911,3.034,3.382,5.155,4.195
				c37.726,14.47,61.26,25.624,79.164,37.636v77.196H106.666V370.802z"/>
			<path d="M402.86,96.599c8.815,0,16.001-7.189,16.001-16.003c0-8.812-7.187-15.999-16.001-15.999
				c-8.812,0-15.999,7.187-15.999,15.999C386.861,89.41,394.049,96.599,402.86,96.599z"/>
			<path d="M311.194,375.43c-8.812,0-15.999,7.189-15.999,15.999c0,8.815,7.186,16.003,15.999,16.003
				c8.815,0,16.001-7.189,16.001-16.003C327.196,382.618,320.009,375.43,311.194,375.43z"/>
			<path d="M318.863,146.427c0-8.815-7.189-16.001-16.001-16.001c-8.812,0-16.001,7.187-16.001,16.001
				c0,8.812,7.189,15.999,16.001,15.999C311.674,162.426,318.863,155.24,318.863,146.427z"/>
			<path d="M101.027,268.928c0,8.815,7.189,16.001,16.001,16.001s16.001-7.186,16.001-16.001c0-8.812-7.189-15.999-16.001-15.999
				S101.027,260.117,101.027,268.928z"/>
			<path d="M262.862,90.427c-8.812,0-16.001,7.187-16.001,15.997c0,8.817,7.189,16.003,16.001,16.003
				c8.812,0,16.001-7.187,16.001-16.003C278.863,97.613,271.675,90.427,262.862,90.427z"/>
			<path d="M95.997,149.341c5.892,0,10.669-4.776,10.669-10.669v-0.256c0-5.89-4.776-10.669-10.669-10.669
				c-5.89,0-10.669,4.779-10.669,10.669v0.256C85.328,144.564,90.107,149.341,95.997,149.341z"/>
			<path d="M96.001,118.443c5.892,0,10.669-4.776,10.669-10.669V53.333c0-5.89-4.776-10.669-10.669-10.669
				c-5.89,0-10.669,4.779-10.669,10.669v54.44C85.332,113.667,90.111,118.443,96.001,118.443z"/>
		</g>
	</g>
</g>
<g>
</g>
<g>
</g>
<g>
</g>
<g>
</g>
<g>
</g>
<g>
</g>
<g>
</g>
<g>
</g>
<g>
</g>
<g>
</g>
<g>
</g>
<g>
</g>
<g>
</g>
<g>
</g>
<g>
</g>
</svg>
