<?xml version="1.0" ?><svg data-name="Layer 1" id="Layer_1" viewBox="0 0 100 100" xmlns="http://www.w3.org/2000/svg"><title/><path d="M28.92,72.13C21.11,82.47,5.23,73.73,9,61.65a.65.65,0,0,1,1.24.34c-2.7,9.58,8.69,17.42,16.1,10,4.27-4.27,3.12-11.66-2-14.73-4.27-2.58-9.36-1.18-12.55,2.37-1,1.11-2.61-.52-1.63-1.63,4.18-4.8,11.24-5.95,16.41-1.91A11.74,11.74,0,0,1,28.92,72.13ZM13.23,50a19.43,19.43,0,0,1-.65-10.42,1.06,1.06,0,0,0-2-.56,16.3,16.3,0,0,0,1.05,11.67A.9.9,0,0,0,13.23,50Zm.41-16.91a27.4,27.4,0,0,1,7.12-10.29c1-.89-.48-2.34-1.45-1.45a25.19,25.19,0,0,0-7.2,11.32C11.8,33.63,13.27,34,13.64,33.05ZM39.51,13.56A21.35,21.35,0,0,0,23.69,18c-.74.55-.07,1.79.74,1.27,4.61-3,9.4-3.91,14.84-3.86C40.26,15.37,40.55,13.72,39.51,13.56ZM42,23.76c1.94-2.36,4.06-4.59,5.93-7a1.23,1.23,0,0,0,.19-1.44c-1.59-2.27-3-4.68-4.62-6.92a.76.76,0,0,0-1.31.76c1.05,2.23,2.31,4.35,3.45,6.54-1.94,2-3.75,4-5.68,6C38.65,23.07,40.84,25.18,42,23.76Zm15.43,41A12.83,12.83,0,0,0,47.23,78.8c.73,6.93,6.71,11.51,13.43,11.67,1.63,0,1.59-2.38,0-2.5-10.92-.86-15.47-16.65-3.73-20.41,12.44-4,17.91,14.81,5.51,18.75a.65.65,0,0,0,.35,1.26C77.53,83.81,72.15,61.89,57.44,64.74ZM56.8,52.92c1.3,1.15,3.23-.77,1.92-1.92q-3.79-3.3-7.62-6.57,2.61-3.91,5.2-7.84c.68-1-.93-1.91-1.62-.95Q52,39.3,49.39,43c-2.67-2.26-5.36-4.49-8.08-6.66-.89-.71-2.15.45-1.28,1.28,2.6,2.51,5.25,5,7.92,7.4-2.17,3.06-4.3,6.14-6.37,9.26-.81,1.23,1.12,2.31,2,1.14,2.09-2.91,4.13-5.87,6.14-8.84Q53.22,49.76,56.8,52.92ZM69.31,33.75c1.63-2.11,3.26-4.23,4.87-6.37,1.95,2,3.93,4,5.84,6,1.14,1.18,3-.64,1.8-1.8-2-2-4-4.14-6.12-6.21,1.84-2.49,3.64-5,5.33-7.59.6-.92-.8-2-1.54-1.19-2,2.22-3.87,4.54-5.73,6.88a75.71,75.71,0,0,0-5.75-5c-.5-.39-1.46.13-1,.76a78.41,78.41,0,0,0,5.24,6.18c-1.81,2.32-3.59,4.67-5.35,7C65.83,33.78,68.23,35.14,69.31,33.75Zm15.24,19.8c1,7.63-2.23,14.21-8.13,18.9-.63.5.17,1.45.84,1.09C84.51,69.56,88,60.94,86.66,53,86.43,51.56,84.35,52.18,84.54,53.55Zm9-2.26q-4.47-2.94-9-5.8a1,1,0,0,0-1.31.34l-5.6,8.43c-.56.84.77,1.59,1.34.79l5.31-7.43c2.71,1.85,5.44,3.69,8.18,5.5C93.57,53.87,94.63,52,93.5,51.28Z"/></svg>